<svg version="1.1" xmlns="http://www.w3.org/2000/svg" viewBox="0 0 637.9214852294851 470.9675704477014" width="1275.8429704589703" height="941.9351408954028">
  <!-- svg-source:excalidraw -->
  
  <defs>
    <style class="style-fonts">
      @font-face {
        font-family: "Virgil";
        src: url("https://unpkg.com/@excalidraw/excalidraw@undefined/dist/excalidraw-assets/Virgil.woff2");
      }
      @font-face {
        font-family: "Cascadia";
        src: url("https://unpkg.com/@excalidraw/excalidraw@undefined/dist/excalidraw-assets/Cascadia.woff2");
      }
      @font-face {
        font-family: "Assistant";
        src: url("https://unpkg.com/@excalidraw/excalidraw@undefined/dist/excalidraw-assets/Assistant-Regular.woff2");
      }
    </style>
    
  </defs>
  <rect x="0" y="0" width="637.9214852294851" height="470.9675704477014" fill="#ffffff"></rect><g transform="translate(119.49309936931104 10) rotate(0 36.679969787597656 12.5)"><text x="0" y="0" font-family="Virgil, Segoe UI Emoji" font-size="20px" fill="#1e1e1e" text-anchor="start" style="white-space: pre;" direction="ltr" dominant-baseline="text-before-edge">is it A?</text></g><g stroke-linecap="round"><g transform="translate(149.14884137018544 50.14453125000006) rotate(0 -43.58399033434819 44.74999999999997)"><path d="M0.61 1.16 C-13.98 15.97, -72.22 74.05, -86.72 88.63 M-0.53 0.73 C-15.3 15.68, -73.07 74.92, -87.43 89.71" stroke="#1e1e1e" stroke-width="2" fill="none"></path></g><g transform="translate(149.14884137018544 50.14453125000006) rotate(0 -43.58399033434819 44.74999999999997)"><path d="M-75.12 62.35 C-77.72 73.14, -85.6 83.71, -87.43 89.71 M-75.12 62.35 C-77.4 68.65, -79.99 74.41, -87.43 89.71" stroke="#1e1e1e" stroke-width="2" fill="none"></path></g><g transform="translate(149.14884137018544 50.14453125000006) rotate(0 -43.58399033434819 44.74999999999997)"><path d="M-60.41 76.67 C-68.35 82.31, -81.59 87.66, -87.43 89.71 M-60.41 76.67 C-66.01 79.79, -71.9 82.33, -87.43 89.71" stroke="#1e1e1e" stroke-width="2" fill="none"></path></g></g><mask></mask><g stroke-linecap="round"><g transform="translate(182.67617320148906 54.1328125) rotate(0 48.2734375 38.412109375)"><path d="M0.45 -0.87 C16.57 11.59, 81.35 62.9, 97.36 75.93 M-0.77 1.28 C15.21 14.38, 80.75 64.68, 96.83 76.99" stroke="#1e1e1e" stroke-width="2" fill="none"></path></g><g transform="translate(182.67617320148906 54.1328125) rotate(0 48.2734375 38.412109375)"><path d="M68.22 67.97 C76.89 72.37, 86.87 74.13, 96.83 76.99 M68.22 67.97 C78.63 70.68, 88.33 73.44, 96.83 76.99" stroke="#1e1e1e" stroke-width="2" fill="none"></path></g><g transform="translate(182.67617320148906 54.1328125) rotate(0 48.2734375 38.412109375)"><path d="M80.72 51.69 C85.16 61.85, 90.77 69.31, 96.83 76.99 M80.72 51.69 C86.98 59.92, 92.45 68.19, 96.83 76.99" stroke="#1e1e1e" stroke-width="2" fill="none"></path></g></g><mask></mask><g transform="translate(74.55117320148906 64.77734375) rotate(0 16.059982299804688 12.5)"><text x="0" y="0" font-family="Virgil, Segoe UI Emoji" font-size="20px" fill="#1e1e1e" text-anchor="start" style="white-space: pre;" direction="ltr" dominant-baseline="text-before-edge">Yes</text></g><g transform="translate(239.14882945148906 63.87109375) rotate(0 11.979988098144531 12.5)"><text x="0" y="0" font-family="Virgil, Segoe UI Emoji" font-size="20px" fill="#1e1e1e" text-anchor="start" style="white-space: pre;" direction="ltr" dominant-baseline="text-before-edge">No</text></g><g transform="translate(259.88711070148906 154.5703125) rotate(0 37.91996765136719 12.5)"><text x="0" y="0" font-family="Virgil, Segoe UI Emoji" font-size="20px" fill="#1e1e1e" text-anchor="start" style="white-space: pre;" direction="ltr" dominant-baseline="text-before-edge">is it D?</text></g><g stroke-linecap="round"><g transform="translate(327.48367468032006 193.24675896708584) rotate(0 -45.48141700849533 42.76391461602083)"><path d="M-0.9 0.02 C-16.24 14.24, -76.49 70.11, -91.68 84.43 M0.83 -1.01 C-14.15 13.39, -74.26 71.25, -89.34 85.39" stroke="#1e1e1e" stroke-width="2" fill="none"></path></g><g transform="translate(327.48367468032006 193.24675896708584) rotate(0 -45.48141700849533 42.76391461602083)"><path d="M-76 58.52 C-80.55 66.08, -86.81 74.37, -89.34 85.39 M-76 58.52 C-80.81 66.81, -84.02 77.24, -89.34 85.39" stroke="#1e1e1e" stroke-width="2" fill="none"></path></g><g transform="translate(327.48367468032006 193.24675896708584) rotate(0 -45.48141700849533 42.76391461602083)"><path d="M-61.85 73.38 C-70.95 75.94, -81.87 79.34, -89.34 85.39 M-61.85 73.38 C-71.44 76.61, -79.39 82.06, -89.34 85.39" stroke="#1e1e1e" stroke-width="2" fill="none"></path></g></g><mask></mask><g stroke-linecap="round"><g transform="translate(341.46615316332986 197.3253694491275) rotate(0 48.2734375 38.412109375)"><path d="M-0.72 -1.1 C15.35 11.77, 79.25 64.37, 95.5 77.25 M1.11 0.94 C17.61 13.44, 81.83 62.65, 97.66 75.35" stroke="#1e1e1e" stroke-width="2" fill="none"></path></g><g transform="translate(341.46615316332986 197.3253694491275) rotate(0 48.2734375 38.412109375)"><path d="M69.13 66.08 C73.72 66.59, 82.68 70.75, 97.66 75.35 M69.13 66.08 C77.01 69.32, 82.82 70.67, 97.66 75.35" stroke="#1e1e1e" stroke-width="2" fill="none"></path></g><g transform="translate(341.46615316332986 197.3253694491275) rotate(0 48.2734375 38.412109375)"><path d="M81.76 49.91 C83.51 53.98, 89.63 61.78, 97.66 75.35 M81.76 49.91 C86.47 57.05, 89.17 62.39, 97.66 75.35" stroke="#1e1e1e" stroke-width="2" fill="none"></path></g></g><mask></mask><g transform="translate(233.34115316332986 207.9699006991275) rotate(0 16.059982299804688 12.5)"><text x="0" y="0" font-family="Virgil, Segoe UI Emoji" font-size="20px" fill="#1e1e1e" text-anchor="start" style="white-space: pre;" direction="ltr" dominant-baseline="text-before-edge">Yes</text></g><g transform="translate(397.93880941332986 207.0636506991275) rotate(0 11.979988098144531 12.5)"><text x="0" y="0" font-family="Virgil, Segoe UI Emoji" font-size="20px" fill="#1e1e1e" text-anchor="start" style="white-space: pre;" direction="ltr" dominant-baseline="text-before-edge">No</text></g><g transform="translate(10 168.72403734530553) rotate(0 29.92998504638672 12.5)"><text x="0" y="0" font-family="Virgil, Segoe UI Emoji" font-size="20px" fill="#1e1e1e" text-anchor="start" style="white-space: pre;" direction="ltr" dominant-baseline="text-before-edge">A, 0.5</text></g><g transform="translate(205.85976695148906 298.62109375) rotate(0 38.28997802734375 12.5)"><text x="0" y="0" font-family="Virgil, Segoe UI Emoji" font-size="20px" fill="#1e1e1e" text-anchor="start" style="white-space: pre;" direction="ltr" dominant-baseline="text-before-edge">D, 0.25</text></g><g transform="translate(417.0831466945144 288.9220880939404) rotate(0 36.559967041015625 12.5)"><text x="0" y="0" font-family="Virgil, Segoe UI Emoji" font-size="20px" fill="#1e1e1e" text-anchor="start" style="white-space: pre;" direction="ltr" dominant-baseline="text-before-edge">is it C?</text></g><g stroke-linecap="round"><g transform="translate(457.30474068698754 330.59323566478724) rotate(0 -45.48141700849533 42.76391461602083)"><path d="M1.14 0.2 C-13.84 14.31, -74.79 71.25, -90.31 85.38 M0.28 -0.74 C-14.76 13.5, -75.93 72.38, -90.92 86.84" stroke="#1e1e1e" stroke-width="2" fill="none"></path></g><g transform="translate(457.30474068698754 330.59323566478724) rotate(0 -45.48141700849533 42.76391461602083)"><path d="M-77.73 59.9 C-80.7 68.2, -84.75 72.49, -90.92 86.84 M-77.73 59.9 C-81.08 66.08, -85.3 73.72, -90.92 86.84" stroke="#1e1e1e" stroke-width="2" fill="none"></path></g><g transform="translate(457.30474068698754 330.59323566478724) rotate(0 -45.48141700849533 42.76391461602083)"><path d="M-63.5 74.68 C-70.3 79.23, -78.1 79.62, -90.92 86.84 M-63.5 74.68 C-70.46 77.18, -78.31 81.05, -90.92 86.84" stroke="#1e1e1e" stroke-width="2" fill="none"></path></g></g><mask></mask><g stroke-linecap="round"><g transform="translate(471.28721916999734 334.6718461468289) rotate(0 50.34828522103646 38.412109375)"><path d="M0.65 -0.15 C17.07 12.53, 83.01 63.33, 99.66 76.28 M-0.47 -1.27 C16.22 11.55, 85.13 64.72, 101.83 77.54" stroke="#1e1e1e" stroke-width="2" fill="none"></path></g><g transform="translate(471.28721916999734 334.6718461468289) rotate(0 50.34828522103646 38.412109375)"><path d="M73.24 68.47 C84.3 70.18, 94.94 75.31, 101.83 77.54 M73.24 68.47 C82.81 71.99, 93.09 74.49, 101.83 77.54" stroke="#1e1e1e" stroke-width="2" fill="none"></path></g><g transform="translate(471.28721916999734 334.6718461468289) rotate(0 50.34828522103646 38.412109375)"><path d="M85.75 52.21 C91.9 60.4, 97.6 71.96, 101.83 77.54 M85.75 52.21 C90.78 61.55, 96.51 69.96, 101.83 77.54" stroke="#1e1e1e" stroke-width="2" fill="none"></path></g></g><mask></mask><g transform="translate(363.16221916999734 345.3163773968289) rotate(0 16.059982299804688 12.5)"><text x="0" y="0" font-family="Virgil, Segoe UI Emoji" font-size="20px" fill="#1e1e1e" text-anchor="start" style="white-space: pre;" direction="ltr" dominant-baseline="text-before-edge">Yes</text></g><g transform="translate(527.7598754199973 344.4101273968289) rotate(0 11.979988098144531 12.5)"><text x="0" y="0" font-family="Virgil, Segoe UI Emoji" font-size="20px" fill="#1e1e1e" text-anchor="start" style="white-space: pre;" direction="ltr" dominant-baseline="text-before-edge">No</text></g><g transform="translate(335.68083295815654 435.9675704477014) rotate(0 39.639976501464844 12.5)"><text x="0" y="0" font-family="Virgil, Segoe UI Emoji" font-size="20px" fill="#1e1e1e" text-anchor="start" style="white-space: pre;" direction="ltr" dominant-baseline="text-before-edge">C, 0.125</text></g><g transform="translate(546.9815285644461 426.2685647916418) rotate(0 40.46997833251953 12.5)"><text x="0" y="0" font-family="Virgil, Segoe UI Emoji" font-size="20px" fill="#1e1e1e" text-anchor="start" style="white-space: pre;" direction="ltr" dominant-baseline="text-before-edge">B, 0.125</text></g></svg>